<?xml version="1.0" standalone="no"?>
<!DOCTYPE svg PUBLIC "-//W3C//DTD SVG 20010904//EN"
 "http://www.w3.org/TR/2001/REC-SVG-20010904/DTD/svg10.dtd">
<svg version="1.0" xmlns="http://www.w3.org/2000/svg"
 width="730.000000pt" height="730.000000pt" viewBox="0 0 730.000000 730.000000"
 preserveAspectRatio="xMidYMid meet">
<metadata>
Created by potrace 1.11, written by Peter Selinger 2001-2013
</metadata>
<g transform="translate(0.000000,730.000000) scale(0.100000,-0.100000)"
fill="#000000" stroke="none">
<path d="M3458 7295 c-1 -2 -43 -6 -93 -10 -49 -3 -103 -8 -120 -10 -16 -3
-50 -7 -75 -10 -25 -3 -56 -7 -70 -9 -14 -3 -41 -7 -60 -10 -146 -23 -366 -78
-525 -130 -511 -169 -987 -453 -1369 -816 -113 -108 -211 -211 -275 -290 -20
-25 -41 -49 -47 -55 -6 -5 -40 -48 -75 -95 -144 -191 -270 -394 -373 -605
-127 -261 -245 -596 -281 -800 -3 -16 -10 -43 -15 -60 -5 -16 -11 -46 -14 -65
-2 -19 -7 -46 -10 -60 -6 -27 -11 -65 -21 -145 -3 -27 -8 -59 -10 -70 -25
-120 -25 -662 0 -816 2 -13 6 -46 10 -74 5 -46 18 -123 30 -185 3 -14 8 -41
11 -60 4 -19 8 -42 9 -50 5 -27 46 -183 66 -255 24 -83 113 -331 142 -395 83
-187 178 -367 269 -515 51 -82 192 -283 207 -295 3 -3 20 -23 36 -45 75 -100
306 -345 425 -449 332 -290 766 -551 1140 -685 19 -7 44 -17 55 -21 181 -72
577 -165 790 -186 33 -3 92 -10 130 -14 71 -8 616 -5 670 4 17 3 55 7 85 11
30 3 78 10 105 15 28 5 66 11 85 14 113 16 393 87 530 135 220 76 474 190 633
285 43 25 81 46 84 46 4 0 21 11 39 25 18 14 35 25 38 25 6 0 200 134 238 164
14 11 41 32 59 46 228 173 541 505 735 780 185 262 357 603 464 921 18 51 34
101 36 109 2 8 15 56 29 105 14 50 28 106 31 125 3 19 8 38 10 41 2 4 6 24 10
45 3 22 9 55 14 74 10 41 20 99 26 155 2 21 6 51 9 65 32 170 26 782 -10 970
-3 14 -7 41 -10 60 -5 31 -13 76 -31 170 -16 82 -68 282 -85 325 -4 11 -15 45
-24 75 -35 111 -129 339 -200 480 -246 494 -602 925 -1045 1266 -146 113 -356
247 -496 319 -34 17 -70 37 -79 45 -10 8 -21 15 -24 14 -3 -1 -42 16 -86 36
-343 159 -765 277 -1125 315 -30 3 -77 8 -105 11 -57 6 -492 14 -497 9z"/>
</g>
</svg>
